<?xml version="1.0" encoding="UTF-8"?>
<!DOCTYPE svg PUBLIC "-//W3C//DTD SVG 1.1//EN" "http://www.w3.org/Graphics/SVG/1.1/DTD/svg11.dtd">
<!-- Creator: CorelDRAW 2020 (64 Bit) -->
<svg xmlns="http://www.w3.org/2000/svg" xml:space="preserve" width="84.6666mm" height="84.6666mm" version="1.1" style="shape-rendering:geometricPrecision; text-rendering:geometricPrecision; image-rendering:optimizeQuality; fill-rule:evenodd; clip-rule:evenodd"
viewBox="0 0 8466.66 8466.66"
 xmlns:xlink="http://www.w3.org/1999/xlink"
 xmlns:xodm="http://www.corel.com/coreldraw/odm/2003">
 <defs>
  <style type="text/css">
   <![CDATA[
    .fil0 {fill:none}
    .fil2 {fill:rgba(248, 15, 96, 0.15)}
    .fil1 {fill:rgba(248, 15, 96, 0.15);fill-rule:nonzero}
   ]]>
  </style>
 </defs>
 <g id="Camada_x0020_1">
  <metadata id="CorelCorpID_0Corel-Layer"/>
  <g id="_1532130400768">
   <rect class="fil0" x="-0.01" y="-0.02" width="8466.67" height="8466.67"/>
   <path class="fil1" d="M4272.78 6398.75c-75.27,-9.76 -144.73,15.28 -194.72,61.13 -25.6,23.43 -59.38,36 -93.71,32.35 -1149.27,-122.32 -2047.49,-1097.5 -2047.49,-2278.57 0,-1181.23 898.22,-2156.36 2047.49,-2278.65 34.33,-3.71 68.11,8.89 93.71,32.32 49.99,45.82 119.45,70.89 194.72,61.13 108.2,-14.06 195.25,-102.68 207.37,-211.11 16.4,-145.81 -97.21,-269.3 -239.66,-269.3 -79.36,0 -149.66,38.49 -193.55,97.72 -20.66,27.87 -51.75,45.58 -86.08,49.17 -1271.32,134.12 -2265.21,1212.48 -2265.21,2518.71 0,1306.1 993.89,2384.42 2265.21,2518.54 34.33,3.71 65.42,21.36 86.08,49.2 43.89,59.26 114.19,97.69 193.55,97.69 142.45,0 256.06,-123.46 239.66,-269.15 -12.12,-108.55 -99.17,-197.14 -207.37,-211.2l0 0.02z"/>
   <path class="fil1" d="M5427.32 5311.92c-91.23,7.1 -170.18,68.84 -204.57,153.66 -11.46,28.17 -16.75,55.61 -17.24,81.88 -0.91,40.32 -21.42,77.64 -55.46,99.49 -288.02,185.23 -635.39,285.63 -1007.12,264.47 -863.27,-49.03 -1555.89,-754.78 -1589.58,-1618.69 -16.4,-418.49 120.99,-804.63 359.52,-1107.86 24.54,-31.24 63.08,-48.57 102.68,-45.5 26.7,2.19 54.55,-0.09 83.18,-7.83 90.44,-24.4 159.69,-101.63 174.04,-194.28 24.6,-160.22 -108.58,-296.67 -267.92,-277.86 -94.76,11.4 -174.85,80.36 -201.73,171.88 -7.54,25.48 -10.55,50.37 -9.79,74.42 0.79,29.16 -10.4,57.21 -29.28,79.48 -300.91,357.36 -474.88,824.75 -451.1,1332.59 47.14,1007.56 876.22,1815.05 1884.62,1837.26 422.96,9.23 815.99,-118.75 1138.32,-342.05 24.16,-16.8 53.41,-24.54 82.57,-21.04 25.98,3.13 53.18,1.96 81.12,-4.24 95.05,-21 169.79,-99.52 185.13,-195.71 25.07,-157.29 -102.24,-292.11 -257.39,-280.07z"/>
   <path class="fil1" d="M5475.68 1212.11c-52.78,-6.19 -102.54,4.74 -144.73,28.05 -30.92,17.01 -66.91,21.22 -100.37,10.09 -311.54,-104.03 -644.68,-160.48 -990.82,-160.48 -1691.79,0.41 -3089.96,1361.44 -3133.97,3052.71 -31.85,1223.76 641.58,2296 1642.19,2839.96 27,14.64 47.83,38.66 57.27,67.96 33.02,101.31 131.26,173.31 245.24,165.83 121.94,-7.84 221.11,-110.6 225.02,-232.74 4.36,-136.81 -105.22,-249.16 -241.09,-249.16 -35.88,0 -69.8,7.95 -100.31,22.06 -33.69,15.49 -73.2,13.24 -105.43,-4.94 -889.19,-498.9 -1489.83,-1453.25 -1482.73,-2544.98 10.02,-1535.44 1233.14,-2806.23 2767.28,-2872.73 364.4,-15.78 714.78,36.58 1039.7,144.96 32.96,11.01 58.44,36.58 72.26,68.43 36.99,85.73 122.17,145.78 221.43,145.78 142.13,0 255.62,-122.99 239.75,-268.36 -11.95,-109.95 -100.93,-199.54 -210.7,-212.43l0.01 -0.01z"/>
   <circle class="fil2" cx="4233.33" cy="4233.32" r="1196.21"/>
  </g>
 </g>
</svg>
